<svg width="54" height="54" viewBox="0 0 54 54" fill="none" xmlns="http://www.w3.org/2000/svg">
<circle cx="27" cy="20" r="12" fill="white"/>
<path d="M26.9999 10.8C25.1012 10.8 23.2451 11.3631 21.6664 12.4179C20.0877 13.4728 18.8573 14.9721 18.1307 16.7263C17.4041 18.4805 17.2139 20.4107 17.5844 22.2729C17.9548 24.1351 18.8691 25.8457 20.2117 27.1883C21.5543 28.5309 23.2648 29.4452 25.127 29.8156C26.9893 30.186 28.9195 29.9959 30.6737 29.2693C32.4278 28.5427 33.9272 27.3122 34.982 25.7335C36.0369 24.1548 36.5999 22.2987 36.5999 20.4C36.5972 17.8548 35.5849 15.4146 33.7852 13.6148C31.9854 11.815 29.5452 10.8027 26.9999 10.8ZM27.7384 14.4351L30.0267 12.8613C31.3368 13.389 32.4876 14.2478 33.3664 15.3536L32.6279 17.8404C32.6094 17.8404 32.5901 17.8496 32.5716 17.856L30.4651 18.54C30.4335 18.5502 30.4027 18.5625 30.3728 18.577L27.7384 16.765V14.4351ZM23.9759 12.8613L26.2614 14.4351V16.765L23.6251 18.5807C23.5953 18.5662 23.5644 18.5538 23.5328 18.5437L21.4264 17.8597C21.4079 17.8533 21.3885 17.8487 21.3701 17.844L20.6316 15.3573C21.5112 14.2495 22.6637 13.3894 23.9759 12.8613ZM22.7759 24.7773H20.1599C19.3941 23.5867 18.9551 22.2155 18.887 20.8016L20.9178 19.2434C20.9352 19.2512 20.9531 19.2579 20.9713 19.2637L23.0787 19.9487C23.1068 19.9572 23.1355 19.964 23.1645 19.969L24.1605 22.8693C24.1467 22.8859 24.1328 22.9025 24.1199 22.92L22.8184 24.7117C22.803 24.7328 22.7889 24.7547 22.7759 24.7773ZM29.0944 28.2462C27.722 28.6117 26.2778 28.6117 24.9054 28.2462L23.9768 25.6247C23.9888 25.6099 24.0018 25.596 24.0128 25.5804L25.3153 23.7877C25.3306 23.767 25.3448 23.7454 25.3578 23.7231H28.6421C28.655 23.7454 28.6692 23.767 28.6845 23.7877L29.987 25.5804C29.9981 25.596 30.011 25.6099 30.023 25.6247L29.0944 28.2462ZM31.2239 24.7745C31.2109 24.7519 31.1968 24.73 31.1814 24.709L29.879 22.92C29.8661 22.9025 29.8522 22.8859 29.8384 22.8693L30.8344 19.969C30.8634 19.964 30.892 19.9572 30.9202 19.9487L33.0276 19.2637C33.0458 19.2579 33.0637 19.2512 33.0811 19.2434L35.1119 20.8016C35.0437 22.2155 34.6047 23.5867 33.839 24.7773L31.2239 24.7745Z" fill="#F30C0C"/>
<path fill-rule="evenodd" clip-rule="evenodd" d="M44.5499 21.1501C44.5499 36.36 26.9999 50.4 26.9999 50.4C26.9999 50.4 9.44995 36.36 9.44995 21.1501C9.44995 11.4578 17.3077 3.6001 26.9999 3.6001C36.6922 3.6001 44.5499 11.4578 44.5499 21.1501ZM27 31.8001C33.296 31.8001 38.4 26.6961 38.4 20.4001C38.4 14.1041 33.296 9.0001 27 9.0001C20.7039 9.0001 15.6 14.1041 15.6 20.4001C15.6 26.6961 20.7039 31.8001 27 31.8001Z" fill="#F30C0C"/>
</svg>
