<svg width="18" height="14" viewBox="0 0 18 14" fill="none" xmlns="http://www.w3.org/2000/svg">
<path fill-rule="evenodd" clip-rule="evenodd" d="M1.5 5V11.5C1.5 12.0523 1.94772 12.5 2.5 12.5H15.5C16.0523 12.5 16.5 12.0523 16.5 11.5V5H1.5ZM5.5 6.5C5.77614 6.5 6 6.72386 6 7V8C6 8.27614 5.77614 8.5 5.5 8.5H3.5C3.22386 8.5 3 8.27614 3 8V7C3 6.72386 3.22386 6.5 3.5 6.5H5.5ZM15.5 1.5H2.5C1.98716 1.5 1.56449 1.88604 1.50673 2.38338L1.5 2.5V3.5H16.5V2.5C16.5 1.94772 16.0523 1.5 15.5 1.5ZM18 12C18 13.0544 17.1841 13.9182 16.1493 13.9945L16 14H2C0.945638 14 0.0818349 13.1841 0.00548574 12.1493L0 12V2C0 0.89543 0.89543 0 2 0H16C17.1046 0 18 0.89543 18 2V12Z" fill="#828D9E"/>
</svg>
