<svg width="32" height="32" viewBox="0 0 32 32" fill="none" xmlns="http://www.w3.org/2000/svg">
<path d="M24 7.33333C23.2667 7.33333 22.6391 7.072 22.1173 6.54933C21.5947 6.02756 21.3333 5.4 21.3333 4.66667C21.3333 3.93333 21.5947 3.30533 22.1173 2.78267C22.6391 2.26089 23.2667 2 24 2C24.7333 2 25.3613 2.26089 25.884 2.78267C26.4058 3.30533 26.6667 3.93333 26.6667 4.66667C26.6667 5.4 26.4058 6.02756 25.884 6.54933C25.3613 7.072 24.7333 7.33333 24 7.33333ZM13.3333 25.3333C13.1111 25.3333 12.8942 25.3164 12.6827 25.2827C12.472 25.2498 12.2667 25.2 12.0667 25.1333C10.1556 23.8222 8.55555 22.5 7.26667 21.1667C5.97778 19.8333 5.33333 18.6778 5.33333 17.7C5.33333 17.0111 5.6 16.5556 6.13333 16.3333C6.66667 16.1111 7.22222 16 7.8 16C8.44444 16 9.18889 16.0942 10.0333 16.2827C10.8778 16.472 11.7778 16.7444 12.7333 17.1L12.0333 12.9667C11.9444 12.5222 11.9942 12.0836 12.1827 11.6507C12.372 11.2169 12.6667 10.8667 13.0667 10.6L15.9333 8.66667L13.2667 8.16667L10.6 10C10.2889 10.2 9.95555 10.2667 9.6 10.2C9.24444 10.1333 8.96667 9.94444 8.76667 9.63333C8.56667 9.34444 8.48889 9.02756 8.53333 8.68267C8.57778 8.33867 8.76667 8.04444 9.1 7.8L11.7667 5.96667C12.0778 5.78889 12.4 5.65556 12.7333 5.56667C13.0667 5.47778 13.4111 5.46667 13.7667 5.53333L20.0667 6.7C20.3778 6.74444 20.6778 6.86667 20.9667 7.06667C21.2556 7.26667 21.5 7.54444 21.7 7.9L22.8667 9.96667C23.3556 10.8111 24 11.5222 24.8 12.1C25.6 12.6778 26.5 13.0556 27.5 13.2333C27.8333 13.3 28.1111 13.4498 28.3333 13.6827C28.5556 13.9164 28.6667 14.1889 28.6667 14.5C28.6667 14.9444 28.5169 15.3058 28.2173 15.584C27.9169 15.8613 27.5778 15.9667 27.2 15.9C25.7778 15.6556 24.4947 15.1276 23.3507 14.316C22.2058 13.5053 21.2778 12.5 20.5667 11.3L17.5667 13.3333L21.6333 16.5333C21.9444 16.7778 22.1947 17.0831 22.384 17.4493C22.5724 17.8164 22.6667 18.2111 22.6667 18.6333V22.4667C23.0222 22.7111 23.3667 22.9667 23.7 23.2333C24.0333 23.5 24.3556 23.7556 24.6667 24C24.2 24.4 23.6889 24.7222 23.1333 24.9667C22.5778 25.2111 21.9778 25.3333 21.3333 25.3333C20.7333 25.3333 20.1667 25.2222 19.6333 25C19.1 24.7778 18.6111 24.4889 18.1667 24.1333C17.9222 23.9333 17.6444 23.8333 17.3333 23.8333C17.0222 23.8333 16.7444 23.9333 16.5 24.1333C16.0556 24.4889 15.5667 24.7778 15.0333 25C14.5 25.2222 13.9333 25.3333 13.3333 25.3333ZM20 20.6667V18.6667L15.0667 14.8L15.6667 18.3333C16.2667 18.6222 17.0111 19.0058 17.9 19.484C18.7889 19.9613 19.4889 20.3556 20 20.6667ZM5.33333 30.6667C4.95556 30.6667 4.63911 30.5387 4.384 30.2827C4.128 30.0276 4 29.7111 4 29.3333C4 28.9556 4.128 28.6391 4.384 28.384C4.63911 28.128 4.95556 28 5.33333 28C5.91111 28 6.48356 27.9276 7.05067 27.7827C7.61689 27.6387 8.15556 27.4111 8.66667 27.1C8.86667 26.9889 9.08889 26.9333 9.33333 26.9333C9.57778 26.9333 9.8 26.9889 10 27.1C10.5111 27.4111 11.0502 27.6387 11.6173 27.7827C12.1836 27.9276 12.7556 28 13.3333 28C13.9111 28 14.4836 27.9276 15.0507 27.7827C15.6169 27.6387 16.1556 27.4111 16.6667 27.1C16.8667 26.9889 17.0947 26.9333 17.3507 26.9333C17.6058 26.9333 17.8222 26.9889 18 27.1C18.5111 27.4111 19.0502 27.6387 19.6173 27.7827C20.1836 27.9276 20.7556 28 21.3333 28C21.9111 28 22.4836 27.9276 23.0507 27.7827C23.6169 27.6387 24.1556 27.4111 24.6667 27.1C24.8444 26.9889 25.0667 26.9333 25.3333 26.9333C25.6 26.9333 25.8222 26.9889 26 27.1C26.5111 27.4111 27.0498 27.6387 27.616 27.7827C28.1831 27.9276 28.7556 28 29.3333 28C29.7111 28 30.0276 28.128 30.2827 28.384C30.5387 28.6391 30.6667 28.9556 30.6667 29.3333C30.6667 29.7111 30.5387 30.0276 30.2827 30.2827C30.0276 30.5387 29.7111 30.6667 29.3333 30.6667C28.6444 30.6667 27.9667 30.5831 27.3 30.416C26.6333 30.2498 25.9778 30 25.3333 29.6667C24.6889 30 24.0333 30.2498 23.3667 30.416C22.7 30.5831 22.0222 30.6667 21.3333 30.6667C20.6444 30.6667 19.9667 30.5831 19.3 30.416C18.6333 30.2498 17.9778 30 17.3333 29.6667C16.6889 30 16.0333 30.2498 15.3667 30.416C14.7 30.5831 14.0222 30.6667 13.3333 30.6667C12.6444 30.6667 11.9667 30.5831 11.3 30.416C10.6333 30.2498 9.97778 30 9.33333 29.6667C8.68889 30 8.03333 30.2498 7.36667 30.416C6.7 30.5831 6.02222 30.6667 5.33333 30.6667Z" fill="#F30C0C"/>
</svg>
