<svg width="32" height="32" viewBox="0 0 32 32" fill="none" xmlns="http://www.w3.org/2000/svg">
<path d="M10.4 13.4C11.7791 13.4 13.1018 12.8521 14.077 11.877C15.0521 10.9018 15.6 9.57913 15.6 8.2C15.6 6.82087 15.0521 5.49823 14.077 4.52304C13.1018 3.54786 11.7791 3 10.4 3C9.02087 3 7.69823 3.54786 6.72304 4.52304C5.74786 5.49823 5.2 6.82087 5.2 8.2C5.2 9.57913 5.74786 10.9018 6.72304 11.877C7.69823 12.8521 9.02087 13.4 10.4 13.4ZM26.8 9.4C26.8 10.4609 26.3786 11.4783 25.6284 12.2284C24.8783 12.9786 23.8609 13.4 22.8 13.4C21.7391 13.4 20.7217 12.9786 19.9716 12.2284C19.2214 11.4783 18.8 10.4609 18.8 9.4C18.8 8.33913 19.2214 7.32172 19.9716 6.57157C20.7217 5.82143 21.7391 5.4 22.8 5.4C23.8609 5.4 24.8783 5.82143 25.6284 6.57157C26.3786 7.32172 26.8 8.33913 26.8 9.4ZM14 22.2C14 19.4736 15.24 17.0352 17.1888 15.4208C16.7051 15.144 16.1573 14.9989 15.6 15H5.2C4.35131 15 3.53737 15.3371 2.93726 15.9373C2.33714 16.5374 2 17.3513 2 18.2C2 18.2 2 24.6 10.4 24.6C11.9248 24.6 13.1728 24.3888 14.1936 24.0448C14.0645 23.4384 13.9996 22.82 14 22.2ZM30 22.2C30 24.1096 29.2414 25.9409 27.8912 27.2912C26.5409 28.6414 24.7096 29.4 22.8 29.4C20.8904 29.4 19.0591 28.6414 17.7088 27.2912C16.3586 25.9409 15.6 24.1096 15.6 22.2C15.6 20.2904 16.3586 18.4591 17.7088 17.1088C19.0591 15.7586 20.8904 15 22.8 15C24.7096 15 26.5409 15.7586 27.8912 17.1088C29.2414 18.4591 30 20.2904 30 22.2ZM26.5664 19.2336C26.4921 19.1591 26.4038 19.1 26.3066 19.0597C26.2094 19.0193 26.1052 18.9986 26 18.9986C25.8948 18.9986 25.7906 19.0193 25.6934 19.0597C25.5962 19.1 25.5079 19.1591 25.4336 19.2336L21.2 23.4688L20.1664 22.4336C20.0162 22.2834 19.8124 22.199 19.6 22.199C19.3876 22.199 19.1838 22.2834 19.0336 22.4336C18.8834 22.5838 18.799 22.7876 18.799 23C18.799 23.2124 18.8834 23.4162 19.0336 23.5664L20.6336 25.1664C20.7079 25.2409 20.7962 25.3 20.8934 25.3403C20.9906 25.3807 21.0948 25.4014 21.2 25.4014C21.3052 25.4014 21.4094 25.3807 21.5066 25.3403C21.6038 25.3 21.6921 25.2409 21.7664 25.1664L26.5664 20.3664C26.6409 20.2921 26.7 20.2038 26.7403 20.1066C26.7807 20.0094 26.8014 19.9052 26.8014 19.8C26.8014 19.6948 26.7807 19.5906 26.7403 19.4934C26.7 19.3962 26.6409 19.3079 26.5664 19.2336Z" fill="white"/>
</svg>
