<svg width="26" height="24" viewBox="0 0 26 24" fill="none" xmlns="http://www.w3.org/2000/svg">
<path d="M25.8333 0V16.6667C25.8333 17.9043 25.3417 19.0913 24.4665 19.9665C23.5913 20.8417 22.4043 21.3333 21.1667 21.3333C19.929 21.3333 18.742 20.8417 17.8668 19.9665C16.9917 19.0913 16.5 17.9043 16.5 16.6667C16.5 15.429 16.9917 14.242 17.8668 13.3668C18.742 12.4917 19.929 12 21.1667 12C21.8867 12 22.5667 12.16 23.1667 12.4533V4.62667L9.83333 7.46667V19.3333C9.83333 20.571 9.34167 21.758 8.4665 22.6332C7.59133 23.5083 6.40434 24 5.16667 24C3.92899 24 2.742 23.5083 1.86683 22.6332C0.991665 21.758 0.5 20.571 0.5 19.3333C0.5 18.0957 0.991665 16.9087 1.86683 16.0335C2.742 15.1583 3.92899 14.6667 5.16667 14.6667C5.88667 14.6667 6.56667 14.8267 7.16667 15.12V4L25.8333 0Z" fill="#F30C0C"/>
</svg>
