<svg width="32" height="32" viewBox="0 0 32 32" fill="none" xmlns="http://www.w3.org/2000/svg">
<path fill-rule="evenodd" clip-rule="evenodd" d="M12.5642 7.71675C13.4531 7.67647 13.7368 7.66675 16 7.66675C18.2632 7.66675 18.5469 7.67647 19.4358 7.71675C20.7906 7.77855 21.9799 8.1105 22.9347 9.06536C23.8899 10.0206 24.2215 11.2102 24.2833 12.5643C24.3236 13.4532 24.3333 13.7369 24.3333 16.0001C24.3333 18.2633 24.3236 18.547 24.2833 19.4358C24.2215 20.7907 23.8896 21.9799 22.9347 22.9348C21.9795 23.89 20.7896 24.2216 19.4358 24.2834C18.5469 24.3237 18.2632 24.3334 16 24.3334C13.7368 24.3334 13.4531 24.3237 12.5642 24.2834C11.2094 24.2216 10.0201 23.8897 9.06528 22.9348C8.11007 21.9796 7.77847 20.79 7.71667 19.4358C7.67639 18.547 7.66667 18.2633 7.66667 16.0001C7.66667 13.7369 7.67639 13.4532 7.71667 12.5643C7.77847 11.2095 8.11042 10.0202 9.06528 9.06536C10.0205 8.11015 11.2101 7.77855 12.5642 7.71675ZM16 10.4445C14.4913 10.4445 14.3021 10.4508 13.7094 10.4779C12.8066 10.5192 12.0135 10.7404 11.3767 11.3768C10.7403 12.0133 10.5191 12.8063 10.4778 13.7095C10.4507 14.3022 10.4444 14.4914 10.4444 16.0001C10.4444 17.5088 10.4507 17.698 10.4778 18.2907C10.5191 19.1935 10.7403 19.9865 11.3767 20.6233C12.0132 21.2598 12.8063 21.481 13.7094 21.5223C14.3021 21.5494 14.4913 21.5556 16 21.5556C17.5087 21.5556 17.6979 21.5494 18.2906 21.5223C19.1934 21.481 19.9865 21.2598 20.6233 20.6233C21.2597 19.9869 21.4809 19.1938 21.5222 18.2907C21.5493 17.698 21.5556 17.5088 21.5556 16.0001C21.5556 14.4914 21.5493 14.3022 21.5222 13.7095C21.4809 12.8067 21.2597 12.0136 20.6233 11.3768C19.9868 10.7404 19.1938 10.5192 18.2906 10.4779C17.6979 10.4508 17.5087 10.4445 16 10.4445ZM16 11.4456C17.4833 11.4456 17.659 11.4511 18.2448 11.4779C18.8771 11.5067 19.4639 11.6334 19.9153 12.0848C20.3667 12.5362 20.4934 13.123 20.5222 13.7553C20.549 14.3411 20.5545 14.5167 20.5545 16.0001C20.5545 17.4834 20.549 17.6591 20.5222 18.2449C20.4934 18.8772 20.3667 19.464 19.9153 19.9154C19.4639 20.3667 18.8771 20.4935 18.2448 20.5223C17.659 20.549 17.4833 20.5546 16 20.5546C14.5167 20.5546 14.341 20.549 13.7552 20.5223C13.1229 20.4935 12.5361 20.3667 12.0847 19.9154C11.6333 19.464 11.5066 18.8772 11.4778 18.2449C11.451 17.6591 11.4455 17.4834 11.4455 16.0001C11.4455 14.5167 11.451 14.3411 11.4778 13.7553C11.5066 13.123 11.6333 12.5362 12.0847 12.0848C12.5361 11.6334 13.1229 11.5067 13.7552 11.4779C14.341 11.4511 14.5167 11.4456 16 11.4456ZM13.1472 16.0001C13.1472 14.4247 14.4243 13.1473 16 13.1473C17.5757 13.1473 18.8528 14.4247 18.8528 16.0001C18.8528 17.5754 17.5753 18.8529 16 18.8529C14.4247 18.8529 13.1472 17.5754 13.1472 16.0001ZM14.1483 16.0001C14.1483 17.0227 14.9771 17.8518 16 17.8518C17.0229 17.8518 17.8517 17.023 17.8517 16.0001C17.8517 14.9775 17.0229 14.1483 16 14.1483C14.9774 14.1483 14.1483 14.9772 14.1483 16.0001ZM18.9656 13.7011C19.3338 13.7011 19.6323 13.4026 19.6323 13.0345C19.6323 12.6663 19.3338 12.3678 18.9656 12.3678C18.5974 12.3678 18.299 12.6663 18.299 13.0345C18.299 13.4026 18.5974 13.7011 18.9656 13.7011Z" fill="white"/>
</svg>
