<svg width="32" height="32" viewBox="0 0 32 32" fill="none" xmlns="http://www.w3.org/2000/svg">
<path d="M20.1667 8.91655C20.1667 8.68643 19.9801 8.49988 19.75 8.49988H17.6667C15.4828 8.3911 13.6211 10.0666 13.5 12.2499V14.4999H11.4167C11.1865 14.4999 11 14.6864 11 14.9166V17.0832C11 17.3133 11.1865 17.4999 11.4167 17.4999H13.5V23.0832C13.5 23.3133 13.6865 23.4999 13.9167 23.4999H16.4167C16.6468 23.4999 16.8333 23.3133 16.8333 23.0832V17.4999H19.0167C19.2073 17.5026 19.3755 17.3756 19.425 17.1916L20.025 15.0249C20.0586 14.9001 20.0324 14.7668 19.9541 14.664C19.8758 14.5612 19.7542 14.5006 19.625 14.4999H16.8333V12.2499C16.8763 11.8225 17.2371 11.4977 17.6667 11.4999H19.75C19.9801 11.4999 20.1667 11.3133 20.1667 11.0832V8.91655Z" fill="white"/>
</svg>
