<svg width="28" height="24" viewBox="0 0 28 24" fill="none" xmlns="http://www.w3.org/2000/svg">
<path d="M13.8333 0C6.5 0 0.5 4.77333 0.5 10.6667C0.533478 12.0836 0.879502 13.4756 1.51335 14.7433C2.14719 16.011 3.05321 17.1231 4.16667 18C4.16667 18.8 3.60667 20.8933 0.5 24C3.66 23.8533 6.68667 22.6667 9.12667 20.6667C10.6467 21.1067 12.2467 21.3333 13.8333 21.3333C21.1667 21.3333 27.1667 16.56 27.1667 10.6667C27.1667 4.77333 21.1667 0 13.8333 0ZM13.8333 18.6667C7.94 18.6667 3.16667 15.08 3.16667 10.6667C3.16667 6.25333 7.94 2.66667 13.8333 2.66667C19.7267 2.66667 24.5 6.25333 24.5 10.6667C24.5 15.08 19.7267 18.6667 13.8333 18.6667Z" fill="#F30C0C"/>
</svg>
