<svg width="32" height="32" viewBox="0 0 32 32" fill="none" xmlns="http://www.w3.org/2000/svg">
<path d="M5.66667 28.3333H7V11H5.66667C4.95942 11 4.28115 11.281 3.78105 11.781C3.28095 12.2811 3 12.9594 3 13.6667V25.6667C3 26.3739 3.28095 27.0522 3.78105 27.5523C4.28115 28.0524 4.95942 28.3333 5.66667 28.3333ZM27 11H17.6667L19.1627 6.50933C19.2962 6.10855 19.3325 5.68179 19.2688 5.26421C19.205 4.84662 19.043 4.45015 18.796 4.10746C18.549 3.76477 18.2241 3.48566 17.8481 3.29311C17.4721 3.10057 17.0558 3.00011 16.6333 3H16.3333L9.66667 10.2507V28.3333H24.3333L29.5493 16.872L29.6667 16.3333V13.6667C29.6667 12.9594 29.3857 12.2811 28.8856 11.781C28.3855 11.281 27.7072 11 27 11Z" fill="white"/>
</svg>
