<svg width="27" height="27" viewBox="0 0 27 27" fill="none" xmlns="http://www.w3.org/2000/svg">
<path d="M13.3333 0C5.97333 0 0 5.97333 0 13.3333C0 20.6933 5.97333 26.6667 13.3333 26.6667C20.6933 26.6667 26.6667 20.6933 26.6667 13.3333C26.6667 5.97333 20.6933 0 13.3333 0ZM14.6667 4.4L16.4667 3.13333C18.8786 3.88073 20.9477 5.45853 22.3067 7.58667L21.7867 9.37333L19.9867 9.98667L14.6667 6.26667V4.4ZM10.2 3.13333L12 4.4V6.26667L6.68 9.98667L4.88 9.37333L4.36 7.58667C5.72692 5.46582 7.79304 3.89029 10.2 3.13333ZM6.77333 20.1467L5.25333 20.28C3.58193 18.352 2.66333 15.885 2.66667 13.3333C2.66667 13.1733 2.68 13.0267 2.69333 12.8667L4.02667 11.8933L5.86667 12.5333L7.81333 18.32L6.77333 20.1467ZM16.6667 23.4533C15.6133 23.8 14.4933 24 13.3333 24C12.1733 24 11.0533 23.8 10 23.4533L9.08 21.4667L9.93333 20H16.7467L17.6 21.48L16.6667 23.4533ZM16.36 17.3333H10.3067L8.50667 11.9733L13.3333 8.58667L18.1733 11.9733L16.36 17.3333ZM21.4133 20.28L19.8933 20.1467L18.84 18.32L20.7867 12.5333L22.64 11.9067L23.9733 12.88C23.9867 13.0267 24 13.1733 24 13.3333C24 15.9867 23.0267 18.4133 21.4133 20.28Z" fill="#F30C0C"/>
</svg>
