<svg width="27" height="27" viewBox="0 0 27 27" fill="none" xmlns="http://www.w3.org/2000/svg">
<path d="M18.6667 1.33333H2.66667C1.95942 1.33333 1.28115 1.61428 0.781048 2.11438C0.280951 2.61448 0 3.29276 0 4V10.6667C0 11.3739 0.280951 12.0522 0.781048 12.5523C1.28115 13.0524 1.95942 13.3333 2.66667 13.3333H6.86667C7.42667 13.3333 7.93333 13.6533 8.13333 14.1733C8.3539 14.8443 8.83127 15.4005 9.46097 15.7204C10.0907 16.0402 10.8214 16.0976 11.4933 15.88C12.3067 15.6133 12.9333 14.9733 13.2 14.1733C13.4 13.6533 13.9067 13.3333 14.4667 13.3333H18.6667C19.3739 13.3333 20.0522 13.0524 20.5523 12.5523C21.0524 12.0522 21.3333 11.3739 21.3333 10.6667V4C21.3333 3.29276 21.0524 2.61448 20.5523 2.11438C20.0522 1.61428 19.3739 1.33333 18.6667 1.33333ZM18.6667 10.6667H12.4667C12.1333 9.94667 11.4533 9.45333 10.6667 9.33333C9.88 9.45333 9.2 9.94667 8.86667 10.6667H2.66667V4H18.6667V10.6667ZM26.6667 0V18C26.6667 19.1381 26.4425 20.2651 26.007 21.3166C25.5714 22.3681 24.933 23.3235 24.1283 24.1283C23.3235 24.933 22.3681 25.5714 21.3166 26.007C20.2651 26.4425 19.1381 26.6667 18 26.6667C15.72 26.6667 13.5333 25.76 11.9067 24.16C9.26667 24.7733 6.50667 23.72 4.94667 21.4933L7.49333 20.3867C8.66667 21.6267 10.4533 22 12 21.3333C12.2667 21.2133 12.52 21.0667 12.7467 20.8933C13.8667 20.0667 14.4933 18.72 14.3733 17.3333L16.92 16.2267C17.4667 18.72 16.5467 21.3333 14.5333 22.8933C15.5467 23.6133 16.76 24 18 24C21.3333 24 24 21.3333 24 18V0H26.6667Z" fill="#F30C0C"/>
</svg>
