<svg width="27" height="30" viewBox="0 0 27 30" fill="none" xmlns="http://www.w3.org/2000/svg">
<path d="M14.5958 0C8.46242 0 3.39576 4.53333 2.72909 10.5333L0.595757 13.3333C-0.0709094 14.4 -0.204243 15.7333 0.329091 16.8C0.862424 17.7333 1.66242 18.4 2.59576 18.5333V20C2.59576 22.4 4.32909 24.5333 6.59576 25.2V29.3333H21.2624V22C24.5958 19.7333 26.5958 16.1333 26.5958 12C26.5958 5.33333 21.2624 0 14.5958 0ZM18.5958 20.4V26.6667H9.26242V22.6667H7.92909C6.46242 22.6667 5.26242 21.4667 5.26242 20V16H3.26242C2.72909 16 2.32909 15.3333 2.72909 14.9333L5.26242 11.6C5.52909 6.66667 9.52909 2.66667 14.5958 2.66667C19.7958 2.66667 23.9291 6.8 23.9291 12C23.9291 15.7333 21.7958 18.9333 18.5958 20.4Z" fill="#F30C0C"/>
</svg>
