<svg width="16" height="18" viewBox="0 0 16 18" fill="none" xmlns="http://www.w3.org/2000/svg">
<path fill-rule="evenodd" clip-rule="evenodd" d="M0 2.00487C0 0.897611 0.898899 0 2.00775 0H11.0426C12.1515 0 13.0504 0.897611 13.0504 2.00487V3.25791C13.0504 3.67313 12.7133 4.00974 12.2975 4.00974C11.8816 4.00974 11.5445 3.67313 11.5445 3.25791V2.72981C11.5507 1.779 11.241 1.54646 10.4613 1.51448L10.1838 1.51054L10.0387 1.50365H5.21512L6.98236 2.47713C7.6226 2.82989 8.02016 3.50234 8.02016 4.23252L8.01995 13.5329H10.0387C10.8215 13.5329 11.4716 13.2381 11.5445 12.4756L11.5514 12.3308L11.5485 11.7786C11.5465 11.4 11.8266 11.0856 12.1919 11.0342L12.2975 11.0268C12.7133 11.0268 13.0504 11.3634 13.0504 11.7786V13.0317C13.0504 14.1389 12.1515 15.0365 11.0426 15.0365H8.01995L8.02016 15.9951C8.02016 17.1024 7.12126 18 6.01241 18C5.63941 18 5.27378 17.8962 4.95652 17.7004L0.951859 15.2277C0.360143 14.8624 0 14.2172 0 13.5225V2.00487ZM2.50968 1.76286C2.31453 1.76286 2.13239 1.81847 1.97827 1.91468C1.71992 2.15748 1.54833 2.49018 1.5127 2.86249L1.50581 3.0073V13.3177C1.50581 13.6335 1.65463 13.9284 1.90314 14.1165L2.0009 14.1818L5.01252 15.9499C5.16675 16.0404 5.3424 16.0882 5.5213 16.0882C6.03613 16.0882 6.46043 15.7012 6.51842 15.2027L6.52518 15.0858V4.61971C6.52518 4.3154 6.38697 4.03012 6.15382 3.84126L6.04821 3.76645L3.03659 1.91204C2.87819 1.81451 2.69577 1.76286 2.50968 1.76286ZM14.0452 5.17103L15.8198 6.9431C16.0871 7.21002 16.017 7.47528 15.867 7.6906L15.814 7.75957L15.4477 8.13262L13.8444 9.75852C13.5504 10.0521 13.0737 10.0521 12.7796 9.75852C12.4856 9.46491 12.4856 8.98888 12.7796 8.69528L13.48 7.99548H10.2971C9.88133 7.99548 9.54424 7.80678 9.54424 7.39156C9.54424 6.97634 9.88133 6.74452 10.2971 6.74452H13.4921L12.9804 6.23427C12.6864 5.94067 12.6864 5.46464 12.9804 5.17103C13.2744 4.87743 13.7512 4.87743 14.0452 5.17103Z" fill="#828D9E"/>
</svg>
