<svg width="16" height="18" viewBox="0 0 16 18" fill="none" xmlns="http://www.w3.org/2000/svg">
<path fill-rule="evenodd" clip-rule="evenodd" d="M14 0C15.1046 0 16 0.89543 16 2V16C16 17.1046 15.1046 18 14 18H2C0.89543 18 0 17.1046 0 16V2C0 0.89543 0.89543 0 2 0H14ZM13 1.5H3C2.2203 1.5 1.57955 2.09489 1.50687 2.85554L1.5 3V15C1.5 15.7797 2.09489 16.4204 2.85554 16.4931L3 16.5H13C13.7797 16.5 14.4204 15.9051 14.4931 15.1445L14.5 15V3C14.5 2.2203 13.9051 1.57955 13.1445 1.50687L13 1.5ZM7.25 11C7.66421 11 8 11.3358 8 11.75C8 12.1642 7.66421 12.5 7.25 12.5H3.75C3.33579 12.5 3 12.1642 3 11.75C3 11.3358 3.33579 11 3.75 11H7.25ZM12.25 8C12.6642 8 13 8.33579 13 8.75C13 9.16421 12.6642 9.5 12.25 9.5H3.75C3.33579 9.5 3 9.16421 3 8.75C3 8.33579 3.33579 8 3.75 8H12.25ZM12.25 5C12.6642 5 13 5.33579 13 5.75C13 6.16421 12.6642 6.5 12.25 6.5H3.75C3.33579 6.5 3 6.16421 3 5.75C3 5.33579 3.33579 5 3.75 5H12.25Z" fill="#828D9E"/>
</svg>
