<svg width="18" height="18" viewBox="0 0 18 18" fill="none" xmlns="http://www.w3.org/2000/svg">
<path fill-rule="evenodd" clip-rule="evenodd" d="M14.0357 11C15.9687 11 18 12.567 18 14.5V16C18 17.1046 17.1046 18 16 18H2C0.89543 18 0 17.1046 0 16V14.5C0 12.567 2.0697 11 4.0027 11H14.0357ZM3.99626 12.5C2.38338 12.5 1.58183 13.3159 1.50549 14.3507L1.5 14.5V15.5C1.5 16.0128 1.88604 16.4355 2.38338 16.4933L2.5 16.5H15.5C16.0128 16.5 16.4355 16.114 16.4933 15.6166L16.5 15.5V14.5C16.5 13.4456 15.5 12.492 14.0256 12.5C12.5511 12.508 3.99626 12.5 3.99626 12.5ZM9 0C11.7614 0 14 2.23858 14 5C14 7.76142 11.7614 10 9 10C6.23858 10 4 7.76142 4 5C4 2.23858 6.23858 0 9 0ZM9 1.5C7.067 1.5 5.5 3.067 5.5 5C5.5 6.933 7.067 8.5 9 8.5C10.933 8.5 12.5 6.933 12.5 5C12.5 3.067 10.933 1.5 9 1.5Z" fill="#747C89"/>
</svg>
