<svg width="19" height="19" viewBox="0 0 19 19" fill="none" xmlns="http://www.w3.org/2000/svg">
<path fill-rule="evenodd" clip-rule="evenodd" d="M4.63876 2.22464C6.07769 1.26318 7.76942 0.75 9.5 0.75C10.6491 0.75 11.7869 0.976325 12.8485 1.41605C13.9101 1.85578 14.8747 2.5003 15.6872 3.31282C16.4997 4.12533 17.1442 5.08992 17.584 6.15152C18.0237 7.21312 18.25 8.35093 18.25 9.5C18.25 11.2306 17.7368 12.9223 16.7754 14.3612C15.8139 15.8002 14.4473 16.9217 12.8485 17.5839C11.2496 18.2462 9.4903 18.4195 7.79296 18.0819C6.09563 17.7443 4.53653 16.9109 3.31282 15.6872C2.08911 14.4635 1.25575 12.9044 0.918133 11.207C0.580512 9.50971 0.753791 7.75037 1.41606 6.15152C2.07832 4.55267 3.19983 3.1861 4.63876 2.22464ZM5.61101 15.3203C6.76216 16.0895 8.11553 16.5 9.5 16.5C11.3565 16.5 13.137 15.7625 14.4498 14.4497C15.7625 13.137 16.5 11.3565 16.5 9.5C16.5 8.11553 16.0895 6.76215 15.3203 5.61101C14.5511 4.45986 13.4579 3.56266 12.1788 3.03284C10.8997 2.50303 9.49224 2.36441 8.13437 2.6345C6.7765 2.9046 5.52922 3.57129 4.55026 4.55025C3.57129 5.52922 2.9046 6.7765 2.63451 8.13437C2.36441 9.49224 2.50303 10.8997 3.03285 12.1788C3.56266 13.4579 4.45987 14.5511 5.61101 15.3203ZM10.375 8.625H13C13.2321 8.625 13.4546 8.71719 13.6187 8.88128C13.7828 9.04538 13.875 9.26794 13.875 9.5C13.875 9.73206 13.7828 9.95462 13.6187 10.1187C13.4546 10.2828 13.2321 10.375 13 10.375H9.5C9.26794 10.375 9.04538 10.2828 8.88128 10.1187C8.71719 9.95462 8.625 9.73206 8.625 9.5V6C8.625 5.76794 8.71719 5.54538 8.88128 5.38128C9.04538 5.21719 9.26794 5.125 9.5 5.125C9.73206 5.125 9.95462 5.21719 10.1187 5.38128C10.2828 5.54538 10.375 5.76794 10.375 6V8.625Z" fill="#212B36"/>
</svg>
